<svg xmlns="http://www.w3.org/2000/svg" xmlns:xlink="http://www.w3.org/1999/xlink" width="67" height="67" viewBox="0 0 67 67"><defs><filter id="a" x="0" y="0" width="67" height="67" filterUnits="userSpaceOnUse"><feOffset dy="3" input="SourceAlpha"/><feGaussianBlur stdDeviation="3" result="b"/><feFlood flood-opacity="0.161"/><feComposite operator="in" in2="b"/><feComposite in="SourceGraphic"/></filter></defs><g transform="translate(-265 -797)"><g transform="matrix(1, 0, 0, 1, 265, 797)" filter="url(#a)"><rect width="49" height="49" rx="2" transform="translate(9 6)" fill="#e8ecef"/></g><path d="M10.022,17.971a2.005,2.005,0,0,1-.625-.1,1.285,1.285,0,0,1-.48-.288,1.191,1.191,0,0,1-.312-.444,1.433,1.433,0,0,1-.108-.565H6.935a2.458,2.458,0,0,0,.252,1.141,2.656,2.656,0,0,0,.673.829,3.034,3.034,0,0,0,.985.492,3.623,3.623,0,0,0,1.153.18,4.051,4.051,0,0,0,1.237-.18,2.929,2.929,0,0,0,1-.529,2.376,2.376,0,0,0,.661-.865,2.806,2.806,0,0,0,.24-1.165,2.519,2.519,0,0,0-.084-.673,2.006,2.006,0,0,0-.276-.613,2.159,2.159,0,0,0-.48-.517,2.47,2.47,0,0,0-.733-.372,2.52,2.52,0,0,0,1.069-.9,2.117,2.117,0,0,0,.264-.553,1.915,1.915,0,0,0,.084-.577,2.9,2.9,0,0,0-.216-1.153,2.139,2.139,0,0,0-.613-.829,2.471,2.471,0,0,0-.925-.517A4.378,4.378,0,0,0,10,9.611,3.549,3.549,0,0,0,8.8,9.8a3.056,3.056,0,0,0-.949.541,2.7,2.7,0,0,0-.613.8,2.394,2.394,0,0,0-.216,1.021H8.58a1.277,1.277,0,0,1,.108-.541,1.129,1.129,0,0,1,.3-.408,1.424,1.424,0,0,1,.456-.264,1.758,1.758,0,0,1,.577-.1,1.377,1.377,0,0,1,1.069.372,1.451,1.451,0,0,1,.348,1.033,1.832,1.832,0,0,1-.1.589,1.045,1.045,0,0,1-.3.444,1.523,1.523,0,0,1-.492.288,2.021,2.021,0,0,1-.7.108H8.929v1.237h.925a2.7,2.7,0,0,1,.721.084,1.437,1.437,0,0,1,.541.276,1.415,1.415,0,0,1,.348.48,1.7,1.7,0,0,1,.12.685,1.44,1.44,0,0,1-.42,1.117,1.539,1.539,0,0,1-1.141.4ZM21.193,12.3a4.2,4.2,0,0,0-.9-1.441,4,4,0,0,0-1.369-.925,4.519,4.519,0,0,0-1.754-.324H14.334v9.61H17.1a4.876,4.876,0,0,0,1.814-.324,3.958,3.958,0,0,0,1.393-.913,4.054,4.054,0,0,0,.889-1.429,5.5,5.5,0,0,0,.312-1.886v-.48a5.5,5.5,0,0,0-.312-1.886Zm-1.357,2.354a5.247,5.247,0,0,1-.168,1.357,2.92,2.92,0,0,1-.517,1.021,2.246,2.246,0,0,1-.853.637,3.087,3.087,0,0,1-1.189.216H16.016V10.944h1.165a2.383,2.383,0,0,1,1.97.829,3.658,3.658,0,0,1,.685,2.39v.492ZM18.118,4.614l1.6-1.6a12.617,12.617,0,0,1,7.075,9.441.9.9,0,0,0,1.778-.288,14.428,14.428,0,0,0-7.5-10.511A14.186,14.186,0,0,0,13.541.025l4.577,4.589ZM10.55,24.206l-1.6,1.6a12.617,12.617,0,0,1-7.075-9.441.885.885,0,0,0-1.033-.745A.891.891,0,0,0,.1,16.65,14.428,14.428,0,0,0,7.6,27.16a14.186,14.186,0,0,0,7.532,1.634L10.55,24.206Z" transform="translate(284.166 813.09)" fill="#212d54"/></g></svg>
