<svg xmlns="http://www.w3.org/2000/svg" xmlns:xlink="http://www.w3.org/1999/xlink" width="67" height="67" viewBox="0 0 67 67"><defs><filter id="a" x="0" y="0" width="67" height="67" filterUnits="userSpaceOnUse"><feOffset dy="3" input="SourceAlpha"/><feGaussianBlur stdDeviation="3" result="b"/><feFlood flood-opacity="0.161"/><feComposite operator="in" in2="b"/><feComposite in="SourceGraphic"/></filter></defs><g transform="translate(-265 -797)"><g transform="matrix(1, 0, 0, 1, 265, 797)" filter="url(#a)"><rect width="49" height="49" rx="2" transform="translate(9 6)" fill="#e8ecef"/></g><path d="M23.833,3.491a.854.854,0,0,1,.851.851V21.356l-.266-.346-7.235-9.363a1.28,1.28,0,0,0-2.022,0L10.746,17.36,9.124,15.089a1.274,1.274,0,0,0-2.075.005L2.793,21.052l-.239.33V4.342A.854.854,0,0,1,3.4,3.491ZM3.4.938A3.408,3.408,0,0,0,0,4.342V21.366a3.408,3.408,0,0,0,3.4,3.4H23.833a3.408,3.408,0,0,0,3.4-3.4V4.342a3.408,3.408,0,0,0-3.4-3.4ZM7.661,11.152A2.554,2.554,0,1,0,5.107,8.6a2.554,2.554,0,0,0,2.554,2.554Z" transform="translate(284.881 814.646)" fill="#212d54"/></g></svg>
